<?xml version="1.0" standalone="no"?>
<!DOCTYPE svg PUBLIC "-//W3C//DTD SVG 20010904//EN"
 "http://www.w3.org/TR/2001/REC-SVG-20010904/DTD/svg10.dtd">
<svg version="1.0" xmlns="http://www.w3.org/2000/svg"
 width="460.000000pt" height="460.000000pt" viewBox="0 0 460.000000 460.000000"
 preserveAspectRatio="xMidYMid meet">
<metadata>
Created by potrace 1.15, written by Peter Selinger 2001-2017
</metadata>
<g transform="translate(0.000000,460.000000) scale(0.100000,-0.100000)"
fill="#000000" stroke="none">
<path d="M390 2186 c0 -1086 3 -1977 8 -1979 4 -2 198 4 432 14 234 10 661 28
950 39 503 19 1066 41 1920 75 217 9 412 18 433 21 l37 6 0 1827 0 1828 -172
6 c-319 10 -760 28 -1093 43 -182 8 -472 19 -645 24 -173 5 -396 14 -495 19
-99 6 -281 13 -405 16 -124 4 -358 13 -522 21 -163 8 -330 14 -372 14 l-76 0
0 -1974z m750 1644 c201 -6 538 -17 750 -25 212 -8 480 -17 595 -20 201 -5
871 -28 1250 -43 l180 -7 0 -1555 0 -1555 -60 -2 c-33 -1 -249 -9 -480 -18
-413 -15 -612 -21 -1595 -50 -272 -8 -587 -19 -700 -25 -113 -5 -247 -10 -297
-10 l-93 0 0 1660 0 1660 42 0 c23 0 207 -5 408 -10z"/>
<path d="M2705 2906 c-57 -21 -102 -74 -110 -128 -17 -116 60 -208 175 -208
130 0 209 135 149 254 -38 78 -130 112 -214 82z"/>
<path d="M850 2558 c0 -13 8 -52 18 -88 l19 -65 49 -7 c27 -4 148 -14 269 -22
121 -8 279 -21 352 -28 73 -6 135 -9 139 -5 4 4 -6 58 -22 122 l-28 115 -398
0 -398 0 0 -22z"/>
<path d="M3590 2509 c-87 -111 -286 -312 -370 -372 -117 -83 -261 -173 -340
-212 -52 -26 -102 -51 -111 -55 -52 -26 -230 -89 -339 -119 -157 -43 -438 -81
-602 -81 -95 0 -307 23 -418 45 -147 30 -345 98 -453 156 -21 11 -40 19 -43
17 -2 -2 1 -20 6 -39 5 -18 17 -68 26 -109 16 -74 17 -75 63 -97 169 -79 253
-109 421 -149 127 -30 417 -57 520 -49 251 20 271 23 498 75 183 41 405 128
607 239 60 33 189 123 263 184 124 100 315 304 350 372 10 20 -2 97 -30 194
l-13 45 -35 -45z"/>
</g>
</svg>
