  0
SECTION
  2
HEADER
  9
$ACADVER
  1
AC1009
  9
$INSBASE
 10
0.0
 20
0.0
 30
0.0
  9
$EXTMIN
 10
0.0
 20
0.0
 30
0.0
  9
$EXTMAX
 10
0.0
 20
0.0
 30
0.0
  0
ENDSEC
  0
SECTION
  2
TABLES
  0
TABLE
  2
VPORT
 70
1
  0
VPORT
  2
*ACTIVE
 70
0
 10
0.0
 20
0.0
 11
1.0
 21
1.0
 12
-5.0
 22
1.0
 13
0.0
 23
0.0
 14
0.1
 24
0.1
 15
0.1
 25
0.1
 16
0.0
 26
0.0
 36
1.0
 17
0.0
 27
0.0
 37
0.0
 40
10.0
 41
1.0
 42
50.0
 43
0.0
 44
0.0
 50
0.0
 51
0.0
 71
0
 72
100
 73
1
 74
1
 75
0
 76
0
 77
0
 78
0
  0
ENDTAB
  0
TABLE
  2
LTYPE
 70
8
  0
LTYPE
  2
CONTINUOUS
 70
0
  3
Solid line
 72
65
 73
0
 40
0.0
  0
LTYPE
  2
DOT
 70
0
  3
. . . . . . .
 72
65
 73
2
 40
0.25
 49
0.0
 49
-0.25
  0
LTYPE
  2
DASHED
 70
0
  3
__ __ __ __ __
 72
65
 73
2
 40
0.8
 49
0.5
 49
-0.3
  0
LTYPE
  2
DASHDOT
 70
0
  3
__ . __ . __ .
 72
65
 73
4
 40
1.0
 49
0.5
 49
-0.25
 49
0.0
 49
-0.25
  0
LTYPE
  2
DIVIDE
 70
0
  3
____ . . ____ . . 
 72
65
 73
6
 40
1.25
 49
0.5
 49
-0.25
 49
0.0
 49
-0.25
 49
0.0
 49
-0.25
  0
LTYPE
  2
BORDER
 70
0
  3
__ __ . __ __ . 
 72
65
 73
6
 40
1.75
 49
0.5
 49
-0.25
 49
0.5
 49
-0.25
 49
0.0
 49
-0.25
  0
LTYPE
  2
HIDDEN
 70
0
  3
__ __ __ __ __
 72
65
 73
2
 40
0.4
 49
0.25
 49
-0.25
  0
LTYPE
  2
CENTER
 70
0
  3
____ _ ____ _ __
 72
65
 73
4
 40
2.0
 49
1.25
 49
-0.25
 49
0.25
 49
-0.25
  0
ENDTAB
  0
TABLE
  2
LAYER
 70
1
  0
LAYER
  2
PYDXF
 70
64
 62
7
  6
continuous
  0
ENDTAB
  0
TABLE
  2
STYLE
 70
1
  0
STYLE
  2
STANDARD
 70
0
 40
0
 41
1.0
 50
0.0
 71
0
 42
1
 3
ARIAL.TTF
 4

  0
ENDTAB
  0
TABLE
  2
VIEW
 70
1
  0
VIEW
  2
BF_TOPVIEW
 70
0
 40
120.0
 10
0.0
 20
0.0
 41
200.0
 11
0.0
 21
0.0
 31
1.0
 12
0.0
 22
0.0
 32
0.0
 42
50.0
 43
0.0
 44
0.0
 50
0.0
 71
0
  0
ENDTAB
  0
ENDSEC
  0
SECTION
  2
BLOCKS
  0
ENDSEC
  0
SECTION
  2
ENTITIES
  0
3DFACE
  8
0
 10
0.22125393152236938
 20
-1.622392177581787
 30
0.07396714389324188
 11
0.2617061734199524
 21
-1.6284106969833374
 31
0.07187283039093018
 12
0.2524859309196472
 22
-1.6324090957641602
 32
2.11752986907959
 13
0.2252853512763977
 23
-1.6263498067855835
 33
2.10922908782959
  0
3DFACE
  8
0
 10
0.2842342257499695
 20
-1.4385706186294556
 30
2.128048896789551
 11
0.28941649198532104
 21
-1.5060395002365112
 31
0.128668412566185
 12
0.2894158959388733
 22
1.4919686317443848
 32
0.128668412566185
 13
0.2842337489128113
 23
1.42449951171875
 33
2.128048896789551
  0
3DFACE
  8
0
 10
0.2844277024269104
 20
-1.5507557392120361
 30
2.0320370197296143
 11
0.2842342257499695
 21
-1.4385706186294556
 31
2.128048896789551
 12
0.2842826247215271
 22
-1.5227258205413818
 32
2.104045867919922
 13
0.2842826247215271
 23
-1.5227258205413818
 33
2.104045867919922
  0
3DFACE
  8
0
 10
0.2844277024269104
 20
-1.5507557392120361
 30
2.0320370197296143
 11
0.28823643922805786
 21
-1.5458967685699463
 31
0.1852131336927414
 12
0.2842342257499695
 22
-1.4385706186294556
 32
2.128048896789551
 13
0.2842342257499695
 23
-1.4385706186294556
 33
2.128048896789551
  0
3DFACE
  8
0
 10
0.28823643922805786
 20
-1.5458967685699463
 30
0.1852131336927414
 11
0.28941649198532104
 21
-1.5060395002365112
 31
0.128668412566185
 12
0.2842342257499695
 22
-1.4385706186294556
 32
2.128048896789551
 13
0.2842342257499695
 23
-1.4385706186294556
 33
2.128048896789551
  0
3DFACE
  8
0
 10
0.28442710638046265
 20
1.5366847515106201
 30
2.0320370197296143
 11
0.28428202867507935
 21
1.5086548328399658
 31
2.104045867919922
 12
0.2842337489128113
 22
1.42449951171875
 32
2.128048896789551
 13
0.2842337489128113
 23
1.42449951171875
 33
2.128048896789551
  0
3DFACE
  8
0
 10
0.2224661111831665
 20
1.6245667934417725
 30
0.07389955222606659
 11
0.22237253189086914
 21
1.403332233428955
 31
0.06834356486797333
 12
0.22647559642791748
 22
1.6249945163726807
 32
2.09726881980896
 13
0.22647559642791748
 23
1.6249945163726807
 33
2.09726881980896
  0
3DFACE
  8
0
 10
0.25248533487319946
 20
1.6291934251785278
 30
2.1056370735168457
 11
0.28442710638046265
 21
1.5366847515106201
 31
2.0320370197296143
 12
0.28732532262802124
 22
1.5384247303009033
 32
0.18357090651988983
 13
0.28732532262802124
 23
1.5384247303009033
 33
0.18357090651988983
  0
3DFACE
  8
0
 10
0.286557137966156
 20
1.5328738689422607
 30
0.13530264794826508
 11
0.28732532262802124
 21
1.5384247303009033
 31
0.18357090651988983
 12
0.2894158959388733
 22
1.4919686317443848
 32
0.128668412566185
 13
0.2894158959388733
 23
1.4919686317443848
 33
0.128668412566185
  0
3DFACE
  8
0
 10
0.2894158959388733
 20
1.4919686317443848
 30
0.128668412566185
 11
0.28732532262802124
 21
1.5384247303009033
 31
0.18357090651988983
 12
0.2842337489128113
 22
1.42449951171875
 32
2.128048896789551
 13
0.2842337489128113
 23
1.42449951171875
 33
2.128048896789551
  0
3DFACE
  8
0
 10
0.28732532262802124
 20
1.5384247303009033
 30
0.18357090651988983
 11
0.28442710638046265
 21
1.5366847515106201
 31
2.0320370197296143
 12
0.2842337489128113
 22
1.42449951171875
 32
2.128048896789551
 13
0.2842337489128113
 23
1.42449951171875
 33
2.128048896789551
  0
3DFACE
  8
0
 10
0.2254502773284912
 20
-1.5983669757843018
 30
2.1871869564056396
 11
0.2513102889060974
 21
-1.5984119176864624
 31
2.1954851150512695
 12
0.25149089097976685
 22
-1.5554864406585693
 32
2.216667890548706
 13
0.22550827264785767
 23
-1.5554410219192505
 33
2.2083680629730225
  0
3DFACE
  8
0
 10
0.26354581117630005
 20
-1.605255365371704
 30
0.02963078022003174
 11
0.22308975458145142
 21
-1.599238634109497
 31
0.03171528875827789
 12
0.2224891185760498
 22
-1.5807305574417114
 32
0.023219376802444458
 13
0.2629929184913635
 23
-1.586747169494629
 33
0.02113233506679535
  0
3DFACE
  8
0
 10
0.2617054581642151
 20
1.6288061141967773
 30
0.0718727558851242
 11
0.2606613039970398
 21
1.6242343187332153
 31
0.05055120587348938
 12
0.22575914859771729
 22
1.6199932098388672
 32
0.05256153643131256
 13
0.2224661111831665
 23
1.6245667934417725
 33
0.07389955222606659
  0
3DFACE
  8
0
 10
0.23263710737228394
 20
1.554574728012085
 30
0.019175484776496887
 11
0.26192528009414673
 21
1.558819055557251
 31
0.01719929277896881
 12
0.2573081851005554
 22
1.4033526182174683
 32
0.009729519486427307
 13
0.23258435726165771
 23
1.4033496379852295
 33
0.019178658723831177
  0
3DFACE
  8
0
 10
0.23533183336257935
 20
-1.4033477306365967
 30
-0.007116377353668213
 11
0.14167630672454834
 21
-1.4033526182174683
 31
0.020596221089363098
 12
0.14168411493301392
 22
-1.1852003335952759
 32
0.020596221089363098
 13
0.2353317141532898
 23
-1.185205101966858
 33
-0.007116377353668213
  0
3DFACE
  8
0
 10
0.2342258095741272
 20
-1.1852039098739624
 30
0.01921898126602173
 11
0.2353317141532898
 21
-1.185205101966858
 31
-0.007116377353668213
 12
0.14168411493301392
 22
-1.1852003335952759
 32
0.020596221089363098
 13
0.13629412651062012
 23
-1.1852003335952759
 33
0.04094575345516205
  0
3DFACE
  8
0
 10
0.2342258095741272
 20
-1.1852039098739624
 30
0.01921898126602173
 11
0.23512476682662964
 21
1.1851963996887207
 31
0.01916980743408203
 12
0.25730830430984497
 22
1.1852002143859863
 32
0.009729519486427307
 13
0.2573086619377136
 23
-1.1852003335952759
 33
0.009729519486427307
  0
3DFACE
  8
0
 10
0.22147774696350098
 20
-1.4033513069152832
 30
0.01928803324699402
 11
0.13631129264831543
 21
-1.4033526182174683
 31
0.04094575345516205
 12
0.14167630672454834
 22
-1.4033526182174683
 32
0.020596221089363098
 13
0.23533183336257935
 23
-1.4033477306365967
 33
-0.007116377353668213
  0
3DFACE
  8
0
 10
0.22140616178512573
 20
-1.1852203607559204
 30
0.06839723885059357
 11
0.22132468223571777
 21
-1.4033722877502441
 31
0.06840173900127411
 12
0.22147774696350098
 22
-1.4033513069152832
 32
0.01928803324699402
 13
0.22147774696350098
 23
-1.4033513069152832
 33
0.01928803324699402
  0
3DFACE
  8
0
 10
0.13629364967346191
 20
1.1852000951766968
 30
0.04094575345516205
 11
0.1416836380958557
 21
1.1852000951766968
 31
0.020596221089363098
 12
0.23751598596572876
 22
1.1852049827575684
 32
-0.007116377353668213
 13
0.23512476682662964
 23
1.1851963996887207
 33
0.01916980743408203
  0
3DFACE
  8
0
 10
0.22125393152236938
 20
-1.622392177581787
 30
0.07396714389324188
 11
0.22191506624221802
 21
-1.567665934562683
 31
0.019198864698410034
 12
0.2224891185760498
 22
-1.5807305574417114
 32
0.023219376802444458
 13
0.2224891185760498
 23
-1.5807305574417114
 33
0.023219376802444458
  0
3DFACE
  8
0
 10
0.2224891185760498
 20
-1.5807305574417114
 30
0.023219376802444458
 11
0.22308975458145142
 21
-1.599238634109497
 31
0.03171528875827789
 12
0.22254538536071777
 22
-1.6136116981506348
 32
0.05184538662433624
 13
0.22254538536071777
 23
-1.6136116981506348
 33
0.05184538662433624
  0
3DFACE
  8
0
 10
0.2224891185760498
 20
-1.5807305574417114
 30
0.023219376802444458
 11
0.22254538536071777
 21
-1.6136116981506348
 31
0.05184538662433624
 12
0.22125393152236938
 22
-1.622392177581787
 32
0.07396714389324188
 13
0.22125393152236938
 23
-1.622392177581787
 33
0.07396714389324188
  0
3DFACE
  8
0
 10
0.22132468223571777
 20
-1.4033722877502441
 30
0.06840173900127411
 11
0.22140616178512573
 21
-1.1852203607559204
 31
0.06839723885059357
 12
0.13629412651062012
 22
-1.1852003335952759
 32
0.04094575345516205
 13
0.13631129264831543
 23
-1.4033526182174683
 33
0.04094575345516205
  0
3DFACE
  8
0
 10
0.23533183336257935
 20
-1.4033477306365967
 30
-0.007116377353668213
 11
0.2353317141532898
 21
-1.185205101966858
 31
-0.007116377353668213
 12
0.2573086619377136
 22
-1.1852003335952759
 32
0.009729519486427307
 13
0.2573087811470032
 23
-1.4033526182174683
 33
0.009729519486427307
  0
3DFACE
  8
0
 10
0.22125393152236938
 20
-1.622392177581787
 30
0.07396714389324188
 11
0.2252853512763977
 21
-1.6263498067855835
 31
2.10922908782959
 12
0.22132468223571777
 22
-1.4033722877502441
 32
0.06840173900127411
 13
0.22132468223571777
 23
-1.4033722877502441
 33
0.06840173900127411
  0
3DFACE
  8
0
 10
0.2573087811470032
 20
-1.4033526182174683
 30
0.009729519486427307
 11
0.26285165548324585
 21
-1.574049949645996
 31
0.018945008516311646
 12
0.22191506624221802
 22
-1.567665934562683
 32
0.019198864698410034
 13
0.22147774696350098
 23
-1.4033513069152832
 33
0.01928803324699402
  0
3DFACE
  8
0
 10
0.28823643922805786
 20
-1.5458967685699463
 30
0.1852131336927414
 11
0.2844277024269104
 21
-1.5507557392120361
 31
2.0320370197296143
 12
0.2524859309196472
 22
-1.6324090957641602
 32
2.11752986907959
 13
0.2524859309196472
 23
-1.6324090957641602
 33
2.11752986907959
  0
3DFACE
  8
0
 10
0.28823643922805786
 20
-1.5458967685699463
 30
0.1852131336927414
 11
0.2617061734199524
 21
-1.6284106969833374
 31
0.07187283039093018
 12
0.2629159092903137
 22
-1.6196292638778687
 32
0.04975752532482147
 13
0.2629159092903137
 23
-1.6196292638778687
 33
0.04975752532482147
  0
3DFACE
  8
0
 10
0.2629159092903137
 20
-1.6196292638778687
 30
0.04975752532482147
 11
0.26354581117630005
 21
-1.605255365371704
 31
0.02963078022003174
 12
0.28833192586898804
 22
-1.5351817607879639
 32
0.13781683146953583
 13
0.28833192586898804
 23
-1.5351817607879639
 33
0.13781683146953583
  0
3DFACE
  8
0
 10
0.2629159092903137
 20
-1.6196292638778687
 30
0.04975752532482147
 11
0.28833192586898804
 21
-1.5351817607879639
 31
0.13781683146953583
 12
0.28823643922805786
 22
-1.5458967685699463
 32
0.1852131336927414
 13
0.28823643922805786
 23
-1.5458967685699463
 33
0.1852131336927414
  0
3DFACE
  8
0
 10
0.2844277024269104
 20
-1.5507557392120361
 30
2.0320370197296143
 11
0.2842826247215271
 21
-1.5227258205413818
 31
2.104045867919922
 12
0.2660852074623108
 22
-1.5647917985916138
 32
2.170334815979004
 13
0.2660852074623108
 23
-1.5647917985916138
 33
2.170334815979004
  0
3DFACE
  8
0
 10
0.2660852074623108
 20
-1.5647917985916138
 30
2.170334815979004
 11
0.2523314356803894
 21
-1.6210851669311523
 31
2.15693998336792
 12
0.2524859309196472
 22
-1.6324090957641602
 32
2.11752986907959
 13
0.2524859309196472
 23
-1.6324090957641602
 33
2.11752986907959
  0
3DFACE
  8
0
 10
0.2660852074623108
 20
-1.5647917985916138
 30
2.170334815979004
 11
0.2524859309196472
 21
-1.6324090957641602
 31
2.11752986907959
 12
0.2844277024269104
 22
-1.5507557392120361
 32
2.0320370197296143
 13
0.2844277024269104
 23
-1.5507557392120361
 33
2.0320370197296143
  0
3DFACE
  8
0
 10
0.23751598596572876
 20
1.4033477306365967
 30
-0.007116377353668213
 11
0.2573081851005554
 21
1.4033526182174683
 31
0.009729519486427307
 12
0.25730830430984497
 22
1.1852002143859863
 32
0.009729519486427307
 13
0.23751598596572876
 23
1.1852049827575684
 33
-0.007116377353668213
  0
3DFACE
  8
0
 10
0.22550827264785767
 20
-1.5554410219192505
 30
2.2083680629730225
 11
0.25149089097976685
 21
-1.5554864406585693
 31
2.216667890548706
 12
0.253032386302948
 22
-1.515357494354248
 32
2.222397804260254
 13
0.22554582357406616
 23
-1.5153117179870605
 33
2.219743013381958
  0
3DFACE
  8
0
 10
0.2842342257499695
 20
-1.4385706186294556
 30
2.128048896789551
 11
0.2842337489128113
 21
1.42449951171875
 31
2.128048896789551
 12
0.25303179025650024
 22
1.515357494354248
 32
2.2219643592834473
 13
0.25303179025650024
 23
1.515357494354248
 33
2.2219643592834473
  0
3DFACE
  8
0
 10
0.2617054581642151
 20
1.6288061141967773
 30
0.0718727558851242
 11
0.2224661111831665
 21
1.6245667934417725
 31
0.07389955222606659
 12
0.22647559642791748
 22
1.6249945163726807
 32
2.09726881980896
 13
0.25248533487319946
 23
1.6291934251785278
 33
2.1056370735168457
  0
3DFACE
  8
0
 10
0.23258435726165771
 20
1.4033496379852295
 30
0.019178658723831177
 11
0.2573081851005554
 21
1.4033526182174683
 31
0.009729519486427307
 12
0.23751598596572876
 22
1.4033477306365967
 32
-0.007116377353668213
 13
0.23751598596572876
 23
1.4033477306365967
 33
-0.007116377353668213
  0
3DFACE
  8
0
 10
0.1416836380958557
 20
1.1852000951766968
 30
0.020596221089363098
 11
0.14167577028274536
 21
1.4033526182174683
 31
0.020596221089363098
 12
0.23751598596572876
 22
1.4033477306365967
 32
-0.007116377353668213
 13
0.23751598596572876
 23
1.1852049827575684
 33
-0.007116377353668213
  0
3DFACE
  8
0
 10
0.28442710638046265
 20
1.5366847515106201
 30
2.0320370197296143
 11
0.25248533487319946
 21
1.6291934251785278
 31
2.1056370735168457
 12
0.25237947702407837
 22
1.623754620552063
 32
2.1369330883026123
 13
0.25237947702407837
 23
1.623754620552063
 33
2.1369330883026123
  0
3DFACE
  8
0
 10
0.25237947702407837
 20
1.623754620552063
 30
2.1369330883026123
 11
0.27324265241622925
 21
1.5470291376113892
 31
2.1566951274871826
 12
0.28428202867507935
 22
1.5086548328399658
 32
2.104045867919922
 13
0.28428202867507935
 23
1.5086548328399658
 33
2.104045867919922
  0
3DFACE
  8
0
 10
0.25237947702407837
 20
1.623754620552063
 30
2.1369330883026123
 11
0.28428202867507935
 21
1.5086548328399658
 31
2.104045867919922
 12
0.28442710638046265
 22
1.5366847515106201
 32
2.0320370197296143
 13
0.28442710638046265
 23
1.5366847515106201
 33
2.0320370197296143
  0
3DFACE
  8
0
 10
0.23118966817855835
 20
1.5739622116088867
 30
0.020453378558158875
 11
0.23263710737228394
 21
1.554574728012085
 31
0.019175484776496887
 12
0.2224661111831665
 22
1.6245667934417725
 32
0.07389955222606659
 13
0.2224661111831665
 23
1.6245667934417725
 33
0.07389955222606659
  0
3DFACE
  8
0
 10
0.2224661111831665
 20
1.6245667934417725
 30
0.07389955222606659
 11
0.22575914859771729
 21
1.6199932098388672
 31
0.05256153643131256
 12
0.22978132963180542
 22
1.6002075672149658
 32
0.029009953141212463
 13
0.22978132963180542
 23
1.6002075672149658
 33
0.029009953141212463
  0
3DFACE
  8
0
 10
0.2224661111831665
 20
1.6245667934417725
 30
0.07389955222606659
 11
0.22978132963180542
 21
1.6002075672149658
 31
0.029009953141212463
 12
0.23118966817855835
 22
1.5739622116088867
 32
0.020453378558158875
 13
0.23118966817855835
 23
1.5739622116088867
 33
0.020453378558158875
  0
3DFACE
  8
0
 10
0.23258435726165771
 20
1.4033496379852295
 30
0.019178658723831177
 11
0.22237253189086914
 21
1.403332233428955
 31
0.06834356486797333
 12
0.2224661111831665
 22
1.6245667934417725
 32
0.07389955222606659
 13
0.23263710737228394
 23
1.554574728012085
 33
0.019175484776496887
  0
3DFACE
  8
0
 10
0.13631129264831543
 20
-1.4033526182174683
 30
0.04094575345516205
 11
0.13629412651062012
 21
-1.1852003335952759
 31
0.04094575345516205
 12
0.14168411493301392
 22
-1.1852003335952759
 32
0.020596221089363098
 13
0.14167630672454834
 23
-1.4033526182174683
 33
0.020596221089363098
  0
3DFACE
  8
0
 10
0.22536545991897583
 20
-1.6210410594940186
 30
2.148638963699341
 11
0.2252853512763977
 21
-1.6263498067855835
 31
2.10922908782959
 12
0.2524859309196472
 22
-1.6324090957641602
 32
2.11752986907959
 13
0.2523314356803894
 23
-1.6210851669311523
 33
2.15693998336792
  0
3DFACE
  8
0
 10
0.13629364967346191
 20
1.1852000951766968
 30
0.04094575345516205
 11
0.22229105234146118
 21
1.1851798295974731
 31
0.06834815442562103
 12
0.22237253189086914
 22
1.403332233428955
 32
0.06834356486797333
 13
0.13631075620651245
 23
1.4033526182174683
 33
0.04094575345516205
  0
3DFACE
  8
0
 10
0.22653555870056152
 20
1.6195564270019531
 30
2.1285650730133057
 11
0.22647559642791748
 21
1.6249945163726807
 31
2.09726881980896
 12
0.22667479515075684
 22
1.511161208152771
 32
2.2192463874816895
 13
0.22667479515075684
 23
1.511161208152771
 33
2.2192463874816895
  0
3DFACE
  8
0
 10
0.22667479515075684
 20
1.511161208152771
 30
2.2192463874816895
 11
0.22666144371032715
 21
1.5664558410644531
 31
2.2020957469940186
 12
0.22662705183029175
 22
1.5983332395553589
 32
2.1787238121032715
 13
0.22662705183029175
 23
1.5983332395553589
 33
2.1787238121032715
  0
3DFACE
  8
0
 10
0.22667479515075684
 20
1.511161208152771
 30
2.2192463874816895
 11
0.22662705183029175
 21
1.5983332395553589
 31
2.1787238121032715
 12
0.22653555870056152
 22
1.6195564270019531
 32
2.1285650730133057
 13
0.22653555870056152
 23
1.6195564270019531
 33
2.1285650730133057
  0
3DFACE
  8
0
 10
0.2894158959388733
 20
1.4919686317443848
 30
0.128668412566185
 11
0.26192528009414673
 21
1.558819055557251
 31
0.01719929277896881
 12
0.2610325217247009
 22
1.5781993865966797
 32
0.01846638321876526
 13
0.2610325217247009
 23
1.5781993865966797
 33
0.01846638321876526
  0
3DFACE
  8
0
 10
0.2610325217247009
 20
1.5781993865966797
 30
0.01846638321876526
 11
0.2611960768699646
 21
1.602435827255249
 31
0.029809370636940002
 12
0.286557137966156
 22
1.5328738689422607
 32
0.13530264794826508
 13
0.286557137966156
 23
1.5328738689422607
 33
0.13530264794826508
  0
3DFACE
  8
0
 10
0.2610325217247009
 20
1.5781993865966797
 30
0.01846638321876526
 11
0.286557137966156
 21
1.5328738689422607
 31
0.13530264794826508
 12
0.2894158959388733
 22
1.4919686317443848
 32
0.128668412566185
 13
0.2894158959388733
 23
1.4919686317443848
 33
0.128668412566185
  0
3DFACE
  8
0
 10
0.23258435726165771
 20
1.4033496379852295
 30
0.019178658723831177
 11
0.23751598596572876
 21
1.4033477306365967
 31
-0.007116377353668213
 12
0.14167577028274536
 22
1.4033526182174683
 32
0.020596221089363098
 13
0.13631075620651245
 23
1.4033526182174683
 33
0.04094575345516205
  0
3DFACE
  8
0
 10
0.2894158959388733
 20
1.4919686317443848
 30
0.128668412566185
 11
0.26193147897720337
 21
1.4033526182174683
 31
0.01719929277896881
 12
0.26192528009414673
 22
1.558819055557251
 32
0.01719929277896881
 13
0.26192528009414673
 23
1.558819055557251
 33
0.01719929277896881
  0
3DFACE
  8
0
 10
0.28732532262802124
 20
1.5384247303009033
 30
0.18357090651988983
 11
0.286557137966156
 21
1.5328738689422607
 31
0.13530264794826508
 12
0.2611960768699646
 22
1.602435827255249
 32
0.029809370636940002
 13
0.2611960768699646
 23
1.602435827255249
 33
0.029809370636940002
  0
3DFACE
  8
0
 10
0.2611960768699646
 20
1.602435827255249
 30
0.029809370636940002
 11
0.2606613039970398
 21
1.6242343187332153
 31
0.05055120587348938
 12
0.2617054581642151
 22
1.6288061141967773
 32
0.0718727558851242
 13
0.2617054581642151
 23
1.6288061141967773
 33
0.0718727558851242
  0
3DFACE
  8
0
 10
0.2611960768699646
 20
1.602435827255249
 30
0.029809370636940002
 11
0.2617054581642151
 21
1.6288061141967773
 31
0.0718727558851242
 12
0.28732532262802124
 22
1.5384247303009033
 32
0.18357090651988983
 13
0.28732532262802124
 23
1.5384247303009033
 33
0.18357090651988983
  0
3DFACE
  8
0
 10
0.2617054581642151
 20
1.6288061141967773
 30
0.0718727558851242
 11
0.25248533487319946
 21
1.6291934251785278
 31
2.1056370735168457
 12
0.28732532262802124
 22
1.5384247303009033
 32
0.18357090651988983
 13
0.28732532262802124
 23
1.5384247303009033
 33
0.18357090651988983
  0
3DFACE
  8
0
 10
0.28941649198532104
 20
-1.5060395002365112
 30
0.128668412566185
 11
0.28833192586898804
 21
-1.5351817607879639
 31
0.13781683146953583
 12
0.26354581117630005
 22
-1.605255365371704
 32
0.02963078022003174
 13
0.26354581117630005
 23
-1.605255365371704
 33
0.02963078022003174
  0
3DFACE
  8
0
 10
0.26354581117630005
 20
-1.605255365371704
 30
0.02963078022003174
 11
0.2629929184913635
 21
-1.586747169494629
 31
0.02113233506679535
 12
0.26285165548324585
 22
-1.574049949645996
 32
0.018945008516311646
 13
0.26285165548324585
 23
-1.574049949645996
 33
0.018945008516311646
  0
3DFACE
  8
0
 10
0.26354581117630005
 20
-1.605255365371704
 30
0.02963078022003174
 11
0.26285165548324585
 21
-1.574049949645996
 31
0.018945008516311646
 12
0.28941649198532104
 22
-1.5060395002365112
 32
0.128668412566185
 13
0.28941649198532104
 23
-1.5060395002365112
 33
0.128668412566185
  0
3DFACE
  8
0
 10
0.22229105234146118
 20
1.1851798295974731
 30
0.06834815442562103
 11
0.22140616178512573
 21
-1.1852203607559204
 31
0.06839723885059357
 12
0.2252853512763977
 22
-1.6263498067855835
 32
2.10922908782959
 13
0.22647559642791748
 23
1.6249945163726807
 33
2.09726881980896
  0
3DFACE
  8
0
 10
0.28941649198532104
 20
-1.5060395002365112
 30
0.128668412566185
 11
0.2619398236274719
 21
-1.1852003335952759
 31
0.01719929277896881
 12
0.2619393467903137
 22
1.1852000951766968
 32
0.01719929277896881
 13
0.2619393467903137
 23
1.1852000951766968
 33
0.01719929277896881
  0
3DFACE
  8
0
 10
0.25730830430984497
 20
1.1852002143859863
 30
0.009729519486427307
 11
0.2619393467903137
 21
1.1852000951766968
 31
0.01719929277896881
 12
0.2619398236274719
 22
-1.1852003335952759
 32
0.01719929277896881
 13
0.2573086619377136
 23
-1.1852003335952759
 33
0.009729519486427307
  0
3DFACE
  8
0
 10
0.253032386302948
 20
-1.515357494354248
 30
2.222397804260254
 11
0.25149089097976685
 21
-1.5554864406585693
 31
2.216667890548706
 12
0.2660852074623108
 22
-1.5647917985916138
 32
2.170334815979004
 13
0.2660852074623108
 23
-1.5647917985916138
 33
2.170334815979004
  0
3DFACE
  8
0
 10
0.2660852074623108
 20
-1.5647917985916138
 30
2.170334815979004
 11
0.2842826247215271
 21
-1.5227258205413818
 31
2.104045867919922
 12
0.2842342257499695
 22
-1.4385706186294556
 32
2.128048896789551
 13
0.2842342257499695
 23
-1.4385706186294556
 33
2.128048896789551
  0
3DFACE
  8
0
 10
0.2660852074623108
 20
-1.5647917985916138
 30
2.170334815979004
 11
0.2842342257499695
 21
-1.4385706186294556
 31
2.128048896789551
 12
0.253032386302948
 22
-1.515357494354248
 32
2.222397804260254
 13
0.253032386302948
 23
-1.515357494354248
 33
2.222397804260254
  0
3DFACE
  8
0
 10
0.22132468223571777
 20
-1.4033722877502441
 30
0.06840173900127411
 11
0.22147774696350098
 21
-1.4033513069152832
 31
0.01928803324699402
 12
0.22191506624221802
 22
-1.567665934562683
 32
0.019198864698410034
 13
0.22125393152236938
 23
-1.622392177581787
 33
0.07396714389324188
  0
3DFACE
  8
0
 10
0.2619393467903137
 20
1.1852000951766968
 30
0.01719929277896881
 11
0.25730830430984497
 21
1.1852002143859863
 31
0.009729519486427307
 12
0.2573081851005554
 22
1.4033526182174683
 32
0.009729519486427307
 13
0.26193147897720337
 23
1.4033526182174683
 33
0.01719929277896881
  0
3DFACE
  8
0
 10
0.25303179025650024
 20
1.515357494354248
 30
2.2219643592834473
 11
0.22667479515075684
 21
1.511161208152771
 31
2.2192463874816895
 12
0.22554582357406616
 22
-1.5153117179870605
 32
2.219743013381958
 13
0.253032386302948
 23
-1.515357494354248
 33
2.222397804260254
  0
3DFACE
  8
0
 10
0.28941649198532104
 20
-1.5060395002365112
 30
0.128668412566185
 11
0.2619319558143616
 21
-1.4033526182174683
 31
0.01719929277896881
 12
0.2619398236274719
 22
-1.1852003335952759
 32
0.01719929277896881
 13
0.2619398236274719
 23
-1.1852003335952759
 33
0.01719929277896881
  0
3DFACE
  8
0
 10
0.28941649198532104
 20
-1.5060395002365112
 30
0.128668412566185
 11
0.26285165548324585
 21
-1.574049949645996
 31
0.018945008516311646
 12
0.2619319558143616
 22
-1.4033526182174683
 32
0.01719929277896881
 13
0.2619319558143616
 23
-1.4033526182174683
 33
0.01719929277896881
  0
3DFACE
  8
0
 10
0.2573087811470032
 20
-1.4033526182174683
 30
0.009729519486427307
 11
0.2573086619377136
 21
-1.1852003335952759
 31
0.009729519486427307
 12
0.2619398236274719
 22
-1.1852003335952759
 32
0.01719929277896881
 13
0.2619319558143616
 23
-1.4033526182174683
 33
0.01719929277896881
  0
3DFACE
  8
0
 10
0.2224891185760498
 20
-1.5807305574417114
 30
0.023219376802444458
 11
0.22191506624221802
 21
-1.567665934562683
 31
0.019198864698410034
 12
0.26285165548324585
 22
-1.574049949645996
 32
0.018945008516311646
 13
0.2629929184913635
 23
-1.586747169494629
 33
0.02113233506679535
  0
3DFACE
  8
0
 10
0.2894158959388733
 20
1.4919686317443848
 30
0.128668412566185
 11
0.2619393467903137
 21
1.1852000951766968
 31
0.01719929277896881
 12
0.26193147897720337
 22
1.4033526182174683
 32
0.01719929277896881
 13
0.26193147897720337
 23
1.4033526182174683
 33
0.01719929277896881
  0
3DFACE
  8
0
 10
0.25303179025650024
 20
1.515357494354248
 30
2.2219643592834473
 11
0.2842337489128113
 21
1.42449951171875
 31
2.128048896789551
 12
0.28428202867507935
 22
1.5086548328399658
 32
2.104045867919922
 13
0.28428202867507935
 23
1.5086548328399658
 33
2.104045867919922
  0
3DFACE
  8
0
 10
0.28428202867507935
 20
1.5086548328399658
 30
2.104045867919922
 11
0.27324265241622925
 21
1.5470291376113892
 31
2.1566951274871826
 12
0.2508229613304138
 22
1.5706526041030884
 32
2.210458517074585
 13
0.2508229613304138
 23
1.5706526041030884
 33
2.210458517074585
  0
3DFACE
  8
0
 10
0.28428202867507935
 20
1.5086548328399658
 30
2.104045867919922
 11
0.2508229613304138
 21
1.5706526041030884
 31
2.210458517074585
 12
0.25303179025650024
 22
1.515357494354248
 32
2.2219643592834473
 13
0.25303179025650024
 23
1.515357494354248
 33
2.2219643592834473
  0
3DFACE
  8
0
 10
0.28823643922805786
 20
-1.5458967685699463
 30
0.1852131336927414
 11
0.28833192586898804
 21
-1.5351817607879639
 31
0.13781683146953583
 12
0.28941649198532104
 22
-1.5060395002365112
 32
0.128668412566185
 13
0.28941649198532104
 23
-1.5060395002365112
 33
0.128668412566185
  0
3DFACE
  8
0
 10
0.22140616178512573
 20
-1.1852203607559204
 30
0.06839723885059357
 11
0.22132468223571777
 21
-1.4033722877502441
 31
0.06840173900127411
 12
0.2252853512763977
 22
-1.6263498067855835
 32
2.10922908782959
 13
0.2252853512763977
 23
-1.6263498067855835
 33
2.10922908782959
  0
3DFACE
  8
0
 10
0.22647559642791748
 20
1.6249945163726807
 30
2.09726881980896
 11
0.22237253189086914
 21
1.403332233428955
 31
0.06834356486797333
 12
0.22229105234146118
 22
1.1851798295974731
 32
0.06834815442562103
 13
0.22229105234146118
 23
1.1851798295974731
 33
0.06834815442562103
  0
3DFACE
  8
0
 10
0.1416836380958557
 20
1.1852000951766968
 30
0.020596221089363098
 11
0.13629364967346191
 21
1.1852000951766968
 31
0.04094575345516205
 12
0.13631075620651245
 22
1.4033526182174683
 32
0.04094575345516205
 13
0.14167577028274536
 23
1.4033526182174683
 33
0.020596221089363098
  0
3DFACE
  8
0
 10
0.25248533487319946
 20
1.6291934251785278
 30
2.1056370735168457
 11
0.22647559642791748
 21
1.6249945163726807
 31
2.09726881980896
 12
0.22653555870056152
 22
1.6195564270019531
 32
2.1285650730133057
 13
0.25237947702407837
 23
1.623754620552063
 33
2.1369330883026123
  0
3DFACE
  8
0
 10
0.23751598596572876
 20
1.1852049827575684
 30
-0.007116377353668213
 11
0.25730830430984497
 21
1.1852002143859863
 31
0.009729519486427307
 12
0.23512476682662964
 22
1.1851963996887207
 32
0.01916980743408203
 13
0.23512476682662964
 23
1.1851963996887207
 33
0.01916980743408203
  0
3DFACE
  8
0
 10
0.2573087811470032
 20
-1.4033526182174683
 30
0.009729519486427307
 11
0.22147774696350098
 21
-1.4033513069152832
 31
0.01928803324699402
 12
0.23533183336257935
 22
-1.4033477306365967
 32
-0.007116377353668213
 13
0.23533183336257935
 23
-1.4033477306365967
 33
-0.007116377353668213
  0
3DFACE
  8
0
 10
0.2342258095741272
 20
-1.1852039098739624
 30
0.01921898126602173
 11
0.2573086619377136
 21
-1.1852003335952759
 31
0.009729519486427307
 12
0.2353317141532898
 22
-1.185205101966858
 32
-0.007116377353668213
 13
0.2353317141532898
 23
-1.185205101966858
 33
-0.007116377353668213
  0
3DFACE
  8
0
 10
0.22147774696350098
 20
-1.4033513069152832
 30
0.01928803324699402
 11
0.22132468223571777
 21
-1.4033722877502441
 31
0.06840173900127411
 12
0.13631129264831543
 22
-1.4033526182174683
 32
0.04094575345516205
 13
0.13631129264831543
 23
-1.4033526182174683
 33
0.04094575345516205
  0
3DFACE
  8
0
 10
0.2573087811470032
 20
-1.4033526182174683
 30
0.009729519486427307
 11
0.2619319558143616
 21
-1.4033526182174683
 31
0.01719929277896881
 12
0.26285165548324585
 22
-1.574049949645996
 32
0.018945008516311646
 13
0.26285165548324585
 23
-1.574049949645996
 33
0.018945008516311646
  0
3DFACE
  8
0
 10
0.22140616178512573
 20
-1.1852203607559204
 30
0.06839723885059357
 11
0.2342258095741272
 21
-1.1852039098739624
 31
0.01921898126602173
 12
0.13629412651062012
 22
-1.1852003335952759
 32
0.04094575345516205
 13
0.13629412651062012
 23
-1.1852003335952759
 33
0.04094575345516205
  0
3DFACE
  8
0
 10
0.2617061734199524
 20
-1.6284106969833374
 30
0.07187283039093018
 11
0.28823643922805786
 21
-1.5458967685699463
 31
0.1852131336927414
 12
0.2524859309196472
 22
-1.6324090957641602
 32
2.11752986907959
 13
0.2524859309196472
 23
-1.6324090957641602
 33
2.11752986907959
  0
3DFACE
  8
0
 10
0.253032386302948
 20
-1.515357494354248
 30
2.222397804260254
 11
0.2842342257499695
 21
-1.4385706186294556
 31
2.128048896789551
 12
0.25303179025650024
 22
1.515357494354248
 32
2.2219643592834473
 13
0.25303179025650024
 23
1.515357494354248
 33
2.2219643592834473
  0
3DFACE
  8
0
 10
0.13631075620651245
 20
1.4033526182174683
 30
0.04094575345516205
 11
0.22237253189086914
 21
1.403332233428955
 31
0.06834356486797333
 12
0.23258435726165771
 22
1.4033496379852295
 32
0.019178658723831177
 13
0.23258435726165771
 23
1.4033496379852295
 33
0.019178658723831177
  0
3DFACE
  8
0
 10
0.26192528009414673
 20
1.558819055557251
 30
0.01719929277896881
 11
0.26193147897720337
 21
1.4033526182174683
 31
0.01719929277896881
 12
0.2573081851005554
 22
1.4033526182174683
 32
0.009729519486427307
 13
0.2573081851005554
 23
1.4033526182174683
 33
0.009729519486427307
  0
3DFACE
  8
0
 10
0.2894158959388733
 20
1.4919686317443848
 30
0.128668412566185
 11
0.28941649198532104
 21
-1.5060395002365112
 31
0.128668412566185
 12
0.2619393467903137
 22
1.1852000951766968
 32
0.01719929277896881
 13
0.2619393467903137
 23
1.1852000951766968
 33
0.01719929277896881
  0
3DFACE
  8
0
 10
0.22229105234146118
 20
1.1851798295974731
 30
0.06834815442562103
 11
0.13629364967346191
 21
1.1852000951766968
 31
0.04094575345516205
 12
0.23512476682662964
 22
1.1851963996887207
 32
0.01916980743408203
 13
0.23512476682662964
 23
1.1851963996887207
 33
0.01916980743408203
  0
3DFACE
  8
0
 10
0.23512476682662964
 20
1.1851963996887207
 30
0.01916980743408203
 11
0.2342258095741272
 21
-1.1852039098739624
 31
0.01921898126602173
 12
0.22140616178512573
 22
-1.1852203607559204
 32
0.06839723885059357
 13
0.22229105234146118
 23
1.1851798295974731
 33
0.06834815442562103
  0
3DFACE
  8
0
 10
0.25149089097976685
 20
-1.5554864406585693
 30
2.216667890548706
 11
0.2513102889060974
 21
-1.5984119176864624
 31
2.1954851150512695
 12
0.2660852074623108
 22
-1.5647917985916138
 32
2.170334815979004
 13
0.2660852074623108
 23
-1.5647917985916138
 33
2.170334815979004
  0
3DFACE
  8
0
 10
0.2513102889060974
 20
-1.5984119176864624
 30
2.1954851150512695
 11
0.2523314356803894
 21
-1.6210851669311523
 31
2.15693998336792
 12
0.2660852074623108
 22
-1.5647917985916138
 32
2.170334815979004
 13
0.2660852074623108
 23
-1.5647917985916138
 33
2.170334815979004
  0
3DFACE
  8
0
 10
0.22536545991897583
 20
-1.6210410594940186
 30
2.148638963699341
 11
0.2523314356803894
 21
-1.6210851669311523
 31
2.15693998336792
 12
0.2513102889060974
 22
-1.5984119176864624
 32
2.1954851150512695
 13
0.2254502773284912
 23
-1.5983669757843018
 33
2.1871869564056396
  0
3DFACE
  8
0
 10
0.22554582357406616
 20
-1.5153117179870605
 30
2.219743013381958
 11
0.2252853512763977
 21
-1.6263498067855835
 31
2.10922908782959
 12
0.22536545991897583
 22
-1.6210410594940186
 32
2.148638963699341
 13
0.22536545991897583
 23
-1.6210410594940186
 33
2.148638963699341
  0
3DFACE
  8
0
 10
0.22536545991897583
 20
-1.6210410594940186
 30
2.148638963699341
 11
0.2254502773284912
 21
-1.5983669757843018
 31
2.1871869564056396
 12
0.22550827264785767
 22
-1.5554410219192505
 32
2.2083680629730225
 13
0.22550827264785767
 23
-1.5554410219192505
 33
2.2083680629730225
  0
3DFACE
  8
0
 10
0.22536545991897583
 20
-1.6210410594940186
 30
2.148638963699341
 11
0.22550827264785767
 21
-1.5554410219192505
 31
2.2083680629730225
 12
0.22554582357406616
 22
-1.5153117179870605
 32
2.219743013381958
 13
0.22554582357406616
 23
-1.5153117179870605
 33
2.219743013381958
  0
3DFACE
  8
0
 10
0.25237947702407837
 20
1.623754620552063
 30
2.1369330883026123
 11
0.25223463773727417
 21
1.6025304794311523
 31
2.18709135055542
 12
0.27324265241622925
 22
1.5470291376113892
 32
2.1566951274871826
 13
0.27324265241622925
 23
1.5470291376113892
 33
2.1566951274871826
  0
3DFACE
  8
0
 10
0.25223463773727417
 20
1.6025304794311523
 30
2.18709135055542
 11
0.2508229613304138
 21
1.5706526041030884
 31
2.210458517074585
 12
0.27324265241622925
 22
1.5470291376113892
 32
2.1566951274871826
 13
0.27324265241622925
 23
1.5470291376113892
 33
2.1566951274871826
  0
3DFACE
  8
0
 10
0.22666144371032715
 20
1.5664558410644531
 30
2.2020957469940186
 11
0.2508229613304138
 21
1.5706526041030884
 31
2.210458517074585
 12
0.25223463773727417
 22
1.6025304794311523
 32
2.18709135055542
 13
0.22662705183029175
 23
1.5983332395553589
 33
2.1787238121032715
  0
3DFACE
  8
0
 10
0.22662705183029175
 20
1.5983332395553589
 30
2.1787238121032715
 11
0.25223463773727417
 21
1.6025304794311523
 31
2.18709135055542
 12
0.25237947702407837
 22
1.623754620552063
 32
2.1369330883026123
 13
0.22653555870056152
 23
1.6195564270019531
 33
2.1285650730133057
  0
3DFACE
  8
0
 10
0.25303179025650024
 20
1.515357494354248
 30
2.2219643592834473
 11
0.2508229613304138
 21
1.5706526041030884
 31
2.210458517074585
 12
0.22666144371032715
 22
1.5664558410644531
 32
2.2020957469940186
 13
0.22667479515075684
 23
1.511161208152771
 33
2.2192463874816895
  0
3DFACE
  8
0
 10
0.26192528009414673
 20
1.558819055557251
 30
0.01719929277896881
 11
0.23263710737228394
 21
1.554574728012085
 31
0.019175484776496887
 12
0.23118966817855835
 22
1.5739622116088867
 32
0.020453378558158875
 13
0.2610325217247009
 23
1.5781993865966797
 33
0.01846638321876526
  0
3DFACE
  8
0
 10
0.22254538536071777
 20
-1.6136116981506348
 30
0.05184538662433624
 11
0.2629159092903137
 21
-1.6196292638778687
 31
0.04975752532482147
 12
0.2617061734199524
 22
-1.6284106969833374
 32
0.07187283039093018
 13
0.22125393152236938
 23
-1.622392177581787
 33
0.07396714389324188
  0
3DFACE
  8
0
 10
0.2629159092903137
 20
-1.6196292638778687
 30
0.04975752532482147
 11
0.22254538536071777
 21
-1.6136116981506348
 31
0.05184538662433624
 12
0.22308975458145142
 22
-1.599238634109497
 32
0.03171528875827789
 13
0.26354581117630005
 23
-1.605255365371704
 33
0.02963078022003174
  0
3DFACE
  8
0
 10
0.2610325217247009
 20
1.5781993865966797
 30
0.01846638321876526
 11
0.23118966817855835
 21
1.5739622116088867
 31
0.020453378558158875
 12
0.22978132963180542
 22
1.6002075672149658
 32
0.029009953141212463
 13
0.2611960768699646
 23
1.602435827255249
 33
0.029809370636940002
  0
3DFACE
  8
0
 10
0.2611960768699646
 20
1.602435827255249
 30
0.029809370636940002
 11
0.22978132963180542
 21
1.6002075672149658
 31
0.029009953141212463
 12
0.22575914859771729
 22
1.6199932098388672
 32
0.05256153643131256
 13
0.2606613039970398
 23
1.6242343187332153
 33
0.05055120587348938
  0
3DFACE
  8
0
 10
0.22667479515075684
 20
1.511161208152771
 30
2.2192463874816895
 11
0.22647559642791748
 21
1.6249945163726807
 31
2.09726881980896
 12
0.2252853512763977
 22
-1.6263498067855835
 32
2.10922908782959
 13
0.22554582357406616
 23
-1.5153117179870605
 33
2.219743013381958
  0
3DFACE
  8
0
 10
-1.6484286785125732
 20
-1.5090693235397339
 30
-0.10323542356491089
 11
-1.7111194133758545
 21
-1.47759211063385
 31
-0.10262066125869751
 12
0.1286219358444214
 22
-1.4833015203475952
 32
-0.12066155672073364
 13
0.06742113828659058
 23
-1.5090690851211548
 33
-0.12006139755249023
  0
3DFACE
  8
0
 10
-1.9578361511230469
 20
1.5996477603912354
 30
0.01898108422756195
 11
-1.9662730693817139
 21
1.5969476699829102
 31
0.06913280487060547
 12
-1.9272840023040771
 22
1.6177072525024414
 32
0.06663864850997925
 13
-1.9007279872894287
 23
1.6214913129806519
 33
0.013072505593299866
  0
3DFACE
  8
0
 10
-1.9995214939117432
 20
-1.518723964691162
 30
0.06978060305118561
 11
-1.997450351715088
 21
-1.5183426141738892
 31
0.021104827523231506
 12
-1.988231897354126
 22
-1.561136245727539
 32
0.01976969838142395
 13
-1.9895880222320557
 23
-1.5614290237426758
 33
0.06982909142971039
  0
3DFACE
  8
0
 10
0.19461309909820557
 20
1.6076164245605469
 30
-0.02364664524793625
 11
0.1286213994026184
 21
1.4866865873336792
 31
-0.12066155672073364
 12
0.06742054224014282
 22
1.5124541521072388
 32
-0.12006139755249023
 13
0.1289035677909851
 23
1.6348344087600708
 33
-0.02364664524793625
  0
3DFACE
  8
0
 10
-1.9895880222320557
 20
-1.5614290237426758
 30
0.06982909142971039
 11
-1.988231897354126
 21
-1.561136245727539
 31
0.01976969838142395
 12
-1.9656312465667725
 22
-1.5985722541809082
 32
0.01886419951915741
 13
-1.9662725925445557
 23
-1.5987766981124878
 33
0.06987915933132172
  0
3DFACE
  8
0
 10
-1.9656312465667725
 20
-1.5985722541809082
 30
0.01886419951915741
 11
-1.7111194133758545
 21
-1.47759211063385
 31
-0.10262066125869751
 12
-1.924701452255249
 22
-1.6249802112579346
 32
0.017232179641723633
 13
-1.924701452255249
 23
-1.6249802112579346
 33
0.017232179641723633
  0
3DFACE
  8
0
 10
-1.7111194133758545
 20
-1.47759211063385
 30
-0.10262066125869751
 11
-1.9656312465667725
 21
-1.5985722541809082
 31
0.01886419951915741
 12
-1.988231897354126
 22
-1.561136245727539
 32
0.01976969838142395
 13
-1.988231897354126
 23
-1.561136245727539
 33
0.01976969838142395
  0
3DFACE
  8
0
 10
0.15397214889526367
 20
-1.421093463897705
 30
-0.12091013789176941
 11
0.1286219358444214
 21
-1.4833015203475952
 31
-0.12066155672073364
 12
-1.7111194133758545
 22
-1.47759211063385
 32
-0.10262066125869751
 13
-1.7420868873596191
 23
-1.401599645614624
 33
-0.10231699049472809
  0
3DFACE
  8
0
 10
0.12849390506744385
 20
1.6301053762435913
 30
0.06770046055316925
 11
0.1289035677909851
 21
1.6348344087600708
 31
-0.02364664524793625
 12
-1.8413245677947998
 22
1.6349692344665527
 32
0.0077219754457473755
 13
-1.8413245677947998
 23
1.6349692344665527
 33
0.0077219754457473755
  0
3DFACE
  8
0
 10
0.09346485137939453
 20
1.3955345153808594
 30
0.06791995465755463
 11
0.21367710828781128
 21
1.537429690361023
 31
0.06783892214298248
 12
-1.990488052368164
 22
1.5603755712509155
 32
0.06824478507041931
 13
-1.9995205402374268
 23
1.5168919563293457
 33
0.06670312583446503
  0
3DFACE
  8
0
 10
0.12074881792068481
 20
-1.6319336891174316
 30
0.07100346684455872
 11
0.18645834922790527
 21
-1.6047894954681396
 31
0.0710102766752243
 12
-1.9290375709533691
 22
-1.6222058534622192
 32
0.06992237269878387
 13
-1.886002540588379
 23
-1.6319355964660645
 33
0.06995472311973572
  0
3DFACE
  8
0
 10
0.12890416383743286
 20
-1.6360594034194946
 30
-0.02364664524793625
 11
-1.8779716491699219
 21
-1.6376893520355225
 31
0.015336766839027405
 12
-1.6484286785125732
 22
-1.5090693235397339
 32
-0.10323542356491089
 13
0.06742113828659058
 23
-1.5090690851211548
 33
-0.12006139755249023
  0
3DFACE
  8
0
 10
0.22183090448379517
 20
1.5419070720672607
 30
-0.02364664524793625
 11
0.1539716124534607
 21
1.4244788885116577
 31
-0.12091013789176941
 12
0.1286213994026184
 22
1.4866865873336792
 32
-0.12066155672073364
 13
0.19461309909820557
 23
1.6076164245605469
 33
-0.02364664524793625
  0
3DFACE
  8
0
 10
-1.9662725925445557
 20
-1.5987766981124878
 30
0.06987915933132172
 11
-1.9656312465667725
 21
-1.5985722541809082
 31
0.01886419951915741
 12
-1.924701452255249
 22
-1.6249802112579346
 32
0.017232179641723633
 13
-1.9290375709533691
 23
-1.6222058534622192
 33
0.06992237269878387
  0
3DFACE
  8
0
 10
0.12890416383743286
 20
-1.6360594034194946
 30
-0.02364664524793625
 11
0.06742113828659058
 21
-1.5090690851211548
 31
-0.12006139755249023
 12
0.1286219358444214
 22
-1.4833015203475952
 32
-0.12066155672073364
 13
0.19461369514465332
 23
-1.6088414192199707
 33
-0.02364664524793625
  0
3DFACE
  8
0
 10
0.1539716124534607
 20
1.4244788885116577
 30
-0.12091013789176941
 11
0.15397214889526367
 21
-1.421093463897705
 31
-0.12091013789176941
 12
-1.7420868873596191
 22
-1.401599645614624
 32
-0.10231699049472809
 13
-1.7420876026153564
 23
1.4049839973449707
 33
-0.10231699049472809
  0
3DFACE
  8
0
 10
-1.7111194133758545
 20
-1.47759211063385
 30
-0.10262066125869751
 11
-1.6484286785125732
 21
-1.5090693235397339
 31
-0.10323542356491089
 12
-1.8779716491699219
 22
-1.6376893520355225
 32
0.015336766839027405
 13
-1.924701452255249
 23
-1.6249802112579346
 33
0.017232179641723633
  0
3DFACE
  8
0
 10
0.22117745876312256
 20
-1.3933789730072021
 30
-0.016205191612243652
 11
0.21367627382278442
 21
-1.3933771848678589
 31
0.07081018388271332
 12
0.21367615461349487
 22
-1.5392580032348633
 32
0.07095809280872345
 13
0.22183150053024292
 23
-1.5431320667266846
 33
-0.02364664524793625
  0
3DFACE
  8
0
 10
-1.6363575458526611
 20
1.5124537944793701
 30
-0.10335379838943481
 11
-1.7111198902130127
 21
1.4809765815734863
 31
-0.10262066125869751
 12
-1.9007279872894287
 22
1.6214913129806519
 32
0.013072505593299866
 13
-1.8413245677947998
 23
1.6349692344665527
 33
0.0077219754457473755
  0
3DFACE
  8
0
 10
-1.9946000576019287
 20
1.5200097560882568
 30
0.02122439444065094
 11
-1.9995205402374268
 21
1.5168919563293457
 31
0.06670312583446503
 12
-1.990488052368164
 22
1.5603755712509155
 32
0.06824478507041931
 13
-1.9838087558746338
 23
1.563283085823059
 33
0.019214719533920288
  0
3DFACE
  8
0
 10
0.19461369514465332
 20
-1.6088414192199707
 30
-0.02364664524793625
 11
0.1286219358444214
 21
-1.4833015203475952
 31
-0.12066155672073364
 12
0.15397214889526367
 22
-1.421093463897705
 32
-0.12091013789176941
 13
0.22183150053024292
 23
-1.5431320667266846
 33
-0.02364664524793625
  0
3DFACE
  8
0
 10
-1.8860015869140625
 20
1.630103588104248
 30
0.06664766371250153
 11
0.12849390506744385
 21
1.6301053762435913
 31
0.06770046055316925
 12
-1.8413245677947998
 22
1.6349692344665527
 32
0.0077219754457473755
 13
-1.8413245677947998
 23
1.6349692344665527
 33
0.0077219754457473755
  0
3DFACE
  8
0
 10
-1.997450351715088
 20
-1.5183426141738892
 30
0.021104827523231506
 11
-1.9946000576019287
 21
1.5200097560882568
 31
0.02122439444065094
 12
-1.7420876026153564
 22
1.4049839973449707
 32
-0.10231699049472809
 13
-1.7420868873596191
 23
-1.401599645614624
 33
-0.10231699049472809
  0
3DFACE
  8
0
 10
-1.9007279872894287
 20
1.6214913129806519
 30
0.013072505593299866
 11
-1.9272840023040771
 21
1.6177072525024414
 31
0.06663864850997925
 12
-1.8860015869140625
 22
1.630103588104248
 32
0.06664766371250153
 13
-1.8413245677947998
 23
1.6349692344665527
 33
0.0077219754457473755
  0
3DFACE
  8
0
 10
-1.9290375709533691
 20
-1.6222058534622192
 30
0.06992237269878387
 11
-1.924701452255249
 21
-1.6249802112579346
 31
0.017232179641723633
 12
-1.8779716491699219
 22
-1.6376893520355225
 32
0.015336766839027405
 13
-1.886002540588379
 23
-1.6319355964660645
 33
0.06995472311973572
  0
3DFACE
  8
0
 10
0.1864592432975769
 20
1.6029609441757202
 30
0.06775827705860138
 11
0.19461309909820557
 21
1.6076164245605469
 31
-0.02364664524793625
 12
0.1289035677909851
 22
1.6348344087600708
 32
-0.02364664524793625
 13
0.12849390506744385
 23
1.6301053762435913
 33
0.06770046055316925
  0
3DFACE
  8
0
 10
-1.7420876026153564
 20
1.4049839973449707
 30
-0.10231699049472809
 11
-1.7111198902130127
 21
1.4809765815734863
 31
-0.10262066125869751
 12
0.1286213994026184
 22
1.4866865873336792
 32
-0.12066155672073364
 13
0.1539716124534607
 23
1.4244788885116577
 33
-0.12091013789176941
  0
3DFACE
  8
0
 10
-1.9895880222320557
 20
-1.5614290237426758
 30
0.06982909142971039
 11
-1.9290375709533691
 21
-1.6222058534622192
 31
0.06992237269878387
 12
0.18645834922790527
 22
-1.6047894954681396
 32
0.0710102766752243
 13
0.21367615461349487
 23
-1.5392580032348633
 33
0.07095809280872345
  0
3DFACE
  8
0
 10
-1.9838087558746338
 20
1.563283085823059
 30
0.019214719533920288
 11
-1.990488052368164
 21
1.5603755712509155
 31
0.06824478507041931
 12
-1.9662730693817139
 22
1.5969476699829102
 32
0.06913280487060547
 13
-1.9578361511230469
 23
1.5996477603912354
 33
0.01898108422756195
  0
3DFACE
  8
0
 10
-1.9995214939117432
 20
-1.518723964691162
 30
0.06978060305118561
 11
-1.9995205402374268
 21
1.5168919563293457
 31
0.06670312583446503
 12
-1.9946000576019287
 22
1.5200097560882568
 32
0.02122439444065094
 13
-1.997450351715088
 23
-1.5183426141738892
 33
0.021104827523231506
  0
3DFACE
  8
0
 10
-1.997450351715088
 20
-1.5183426141738892
 30
0.021104827523231506
 11
-1.7420868873596191
 21
-1.401599645614624
 31
-0.10231699049472809
 12
-1.7111194133758545
 22
-1.47759211063385
 32
-0.10262066125869751
 13
-1.988231897354126
 23
-1.561136245727539
 33
0.01976969838142395
  0
3DFACE
  8
0
 10
-1.9578361511230469
 20
1.5996477603912354
 30
0.01898108422756195
 11
-1.7111198902130127
 21
1.4809765815734863
 31
-0.10262066125869751
 12
-1.9838087558746338
 22
1.563283085823059
 32
0.019214719533920288
 13
-1.9838087558746338
 23
1.563283085823059
 33
0.019214719533920288
  0
3DFACE
  8
0
 10
-1.7111198902130127
 20
1.4809765815734863
 30
-0.10262066125869751
 11
-1.9578361511230469
 21
1.5996477603912354
 31
0.01898108422756195
 12
-1.9007279872894287
 22
1.6214913129806519
 32
0.013072505593299866
 13
-1.9007279872894287
 23
1.6214913129806519
 33
0.013072505593299866
  0
3DFACE
  8
0
 10
-1.8860015869140625
 20
1.630103588104248
 30
0.06664766371250153
 11
-1.9272840023040771
 21
1.6177072525024414
 31
0.06663864850997925
 12
0.1864592432975769
 22
1.6029609441757202
 32
0.06775827705860138
 13
0.12849390506744385
 23
1.6301053762435913
 33
0.06770046055316925
  0
3DFACE
  8
0
 10
-1.9662730693817139
 20
1.5969476699829102
 30
0.06913280487060547
 11
-1.990488052368164
 21
1.5603755712509155
 31
0.06824478507041931
 12
0.21367710828781128
 22
1.537429690361023
 32
0.06783892214298248
 13
0.21367710828781128
 23
1.537429690361023
 33
0.06783892214298248
  0
3DFACE
  8
0
 10
-1.9895880222320557
 20
-1.5614290237426758
 30
0.06982909142971039
 11
-1.9662725925445557
 21
-1.5987766981124878
 31
0.06987915933132172
 12
-1.9290375709533691
 22
-1.6222058534622192
 32
0.06992237269878387
 13
-1.9290375709533691
 23
-1.6222058534622192
 33
0.06992237269878387
  0
3DFACE
  8
0
 10
-1.9272840023040771
 20
1.6177072525024414
 30
0.06663864850997925
 11
-1.9662730693817139
 21
1.5969476699829102
 31
0.06913280487060547
 12
0.21367710828781128
 22
1.537429690361023
 32
0.06783892214298248
 13
0.1864592432975769
 23
1.6029609441757202
 33
0.06775827705860138
  0
3DFACE
  8
0
 10
0.09330546855926514
 20
-1.1951912641525269
 30
0.07054634392261505
 11
0.10414355993270874
 21
-1.195192813873291
 31
0.025859549641609192
 12
0.22117745876312256
 22
-1.195192813873291
 32
-0.016205191612243652
 13
0.21367621421813965
 23
-1.1951912641525269
 33
0.07060925662517548
  0
3DFACE
  8
0
 10
0.06742054224014282
 20
1.5124541521072388
 30
-0.12006139755249023
 11
0.1286213994026184
 21
1.4866865873336792
 31
-0.12066155672073364
 12
-1.7111198902130127
 22
1.4809765815734863
 32
-0.10262066125869751
 13
-1.6363575458526611
 23
1.5124537944793701
 33
-0.10335379838943481
  0
3DFACE
  8
0
 10
-1.7420876026153564
 20
1.4049839973449707
 30
-0.10231699049472809
 11
-1.9946000576019287
 21
1.5200097560882568
 31
0.02122439444065094
 12
-1.9838087558746338
 22
1.563283085823059
 32
0.019214719533920288
 13
-1.7111198902130127
 23
1.4809765815734863
 33
-0.10262066125869751
  0
3DFACE
  8
0
 10
0.22183102369308472
 20
1.1929396390914917
 30
-0.02364664524793625
 11
0.22117745876312256
 21
-1.195192813873291
 31
-0.016205191612243652
 12
0.15397214889526367
 22
-1.421093463897705
 32
-0.12091013789176941
 13
0.1539716124534607
 23
1.4244788885116577
 33
-0.12091013789176941
  0
3DFACE
  8
0
 10
0.1539716124534607
 20
1.4244788885116577
 30
-0.12091013789176941
 11
0.22183090448379517
 21
1.5419070720672607
 31
-0.02364664524793625
 12
0.22183096408843994
 22
1.3976619243621826
 32
-0.02364664524793625
 13
0.22183096408843994
 23
1.3976619243621826
 33
-0.02364664524793625
  0
3DFACE
  8
0
 10
-1.9995205402374268
 20
1.5168919563293457
 30
0.06670312583446503
 11
-1.9995214939117432
 21
-1.518723964691162
 31
0.06978060305118561
 12
0.09330534934997559
 22
-1.3933771848678589
 32
0.0707472711801529
 13
0.09330534934997559
 23
-1.3933771848678589
 33
0.0707472711801529
  0
3DFACE
  8
0
 10
0.09346485137939453
 20
1.3955345153808594
 30
0.06791995465755463
 11
0.10430169105529785
 21
1.395535945892334
 31
0.025859549641609192
 12
0.22183096408843994
 22
1.3976619243621826
 32
-0.02364664524793625
 13
0.21367710828781128
 23
1.3927603960037231
 33
0.06798557937145233
  0
3DFACE
  8
0
 10
0.21367615461349487
 20
-1.5392580032348633
 30
0.07095809280872345
 11
0.21367627382278442
 21
-1.3933771848678589
 31
0.07081018388271332
 12
0.09330534934997559
 22
-1.3933771848678589
 32
0.0707472711801529
 13
0.09330534934997559
 23
-1.3933771848678589
 33
0.0707472711801529
  0
3DFACE
  8
0
 10
0.09330546855926514
 20
-1.1951912641525269
 30
0.07054634392261505
 11
-1.9995205402374268
 21
1.5168919563293457
 31
0.06670312583446503
 12
0.09330534934997559
 22
-1.3933771848678589
 32
0.0707472711801529
 13
0.09330534934997559
 23
-1.3933771848678589
 33
0.0707472711801529
  0
3DFACE
  8
0
 10
-1.9995205402374268
 20
1.5168919563293457
 30
0.06670312583446503
 11
0.09872931241989136
 21
1.1958004236221313
 31
0.06812520325183868
 12
0.09346485137939453
 22
1.3955345153808594
 32
0.06791995465755463
 13
0.09346485137939453
 23
1.3955345153808594
 33
0.06791995465755463
  0
3DFACE
  8
0
 10
0.12074881792068481
 20
-1.6319336891174316
 30
0.07100346684455872
 11
-1.886002540588379
 21
-1.6319355964660645
 31
0.06995472311973572
 12
-1.8779716491699219
 22
-1.6376893520355225
 32
0.015336766839027405
 13
0.12890416383743286
 23
-1.6360594034194946
 33
-0.02364664524793625
  0
3DFACE
  8
0
 10
0.09872931241989136
 20
1.1958004236221313
 30
0.06812520325183868
 11
0.21367698907852173
 21
1.1895647048950195
 31
0.06819160282611847
 12
0.22183102369308472
 22
1.1929396390914917
 32
-0.02364664524793625
 13
0.10956615209579468
 23
1.1958016157150269
 33
0.025859549641609192
  0
3DFACE
  8
0
 10
0.10414361953735352
 20
-1.3933789730072021
 30
0.025859549641609192
 11
0.09330534934997559
 21
-1.3933771848678589
 31
0.0707472711801529
 12
0.21367627382278442
 22
-1.3933771848678589
 32
0.07081018388271332
 13
0.22117745876312256
 23
-1.3933789730072021
 33
-0.016205191612243652
  0
3DFACE
  8
0
 10
0.22117745876312256
 20
-1.195192813873291
 30
-0.016205191612243652
 11
0.10414355993270874
 21
-1.195192813873291
 31
0.025859549641609192
 12
0.10414361953735352
 22
-1.3933789730072021
 32
0.025859549641609192
 13
0.22117745876312256
 23
-1.3933789730072021
 33
-0.016205191612243652
  0
3DFACE
  8
0
 10
0.09330546855926514
 20
-1.1951912641525269
 30
0.07054634392261505
 11
0.09330534934997559
 21
-1.3933771848678589
 31
0.0707472711801529
 12
0.10414361953735352
 22
-1.3933789730072021
 32
0.025859549641609192
 13
0.10414355993270874
 23
-1.195192813873291
 33
0.025859549641609192
  0
3DFACE
  8
0
 10
0.09346485137939453
 20
1.3955345153808594
 30
0.06791995465755463
 11
0.09872931241989136
 21
1.1958004236221313
 31
0.06812520325183868
 12
0.10956615209579468
 22
1.1958016157150269
 32
0.025859549641609192
 13
0.10430169105529785
 23
1.395535945892334
 33
0.025859549641609192
  0
3DFACE
  8
0
 10
0.10956615209579468
 20
1.1958016157150269
 30
0.025859549641609192
 11
0.22183102369308472
 21
1.1929396390914917
 31
-0.02364664524793625
 12
0.22183096408843994
 22
1.3976619243621826
 32
-0.02364664524793625
 13
0.10430169105529785
 23
1.395535945892334
 33
0.025859549641609192
  0
3DFACE
  8
0
 10
0.09346485137939453
 20
1.3955345153808594
 30
0.06791995465755463
 11
0.21367710828781128
 21
1.3927603960037231
 31
0.06798557937145233
 12
0.21367710828781128
 22
1.537429690361023
 32
0.06783892214298248
 13
0.21367710828781128
 23
1.537429690361023
 33
0.06783892214298248
  0
3DFACE
  8
0
 10
0.15397214889526367
 20
-1.421093463897705
 30
-0.12091013789176941
 11
0.22117745876312256
 21
-1.195192813873291
 31
-0.016205191612243652
 12
0.22117745876312256
 22
-1.3933789730072021
 32
-0.016205191612243652
 13
0.22117745876312256
 23
-1.3933789730072021
 33
-0.016205191612243652
  0
3DFACE
  8
0
 10
-1.9995205402374268
 20
1.5168919563293457
 30
0.06670312583446503
 11
0.09330546855926514
 21
-1.1951912641525269
 31
0.07054634392261505
 12
0.09872931241989136
 22
1.1958004236221313
 32
0.06812520325183868
 13
0.09872931241989136
 23
1.1958004236221313
 33
0.06812520325183868
  0
3DFACE
  8
0
 10
0.22183150053024292
 20
-1.5431320667266846
 30
-0.02364664524793625
 11
0.15397214889526367
 21
-1.421093463897705
 31
-0.12091013789176941
 12
0.22117745876312256
 22
-1.3933789730072021
 32
-0.016205191612243652
 13
0.22117745876312256
 23
-1.3933789730072021
 33
-0.016205191612243652
  0
3DFACE
  8
0
 10
0.21367710828781128
 20
1.537429690361023
 30
0.06783892214298248
 11
0.22183090448379517
 21
1.5419070720672607
 31
-0.02364664524793625
 12
0.19461309909820557
 22
1.6076164245605469
 32
-0.02364664524793625
 13
0.1864592432975769
 23
1.6029609441757202
 33
0.06775827705860138
  0
3DFACE
  8
0
 10
0.22183090448379517
 20
1.5419070720672607
 30
-0.02364664524793625
 11
0.21367710828781128
 21
1.537429690361023
 31
0.06783892214298248
 12
0.21367710828781128
 22
1.3927603960037231
 32
0.06798557937145233
 13
0.22183096408843994
 23
1.3976619243621826
 33
-0.02364664524793625
  0
3DFACE
  8
0
 10
0.22183096408843994
 20
1.3976619243621826
 30
-0.02364664524793625
 11
0.22183102369308472
 21
1.1929396390914917
 31
-0.02364664524793625
 12
0.1539716124534607
 22
1.4244788885116577
 32
-0.12091013789176941
 13
0.1539716124534607
 23
1.4244788885116577
 33
-0.12091013789176941
  0
3DFACE
  8
0
 10
0.12074881792068481
 20
-1.6319336891174316
 30
0.07100346684455872
 11
0.12890416383743286
 21
-1.6360594034194946
 31
-0.02364664524793625
 12
0.19461369514465332
 22
-1.6088414192199707
 32
-0.02364664524793625
 13
0.18645834922790527
 23
-1.6047894954681396
 33
0.0710102766752243
  0
3DFACE
  8
0
 10
0.18645834922790527
 20
-1.6047894954681396
 30
0.0710102766752243
 11
0.19461369514465332
 21
-1.6088414192199707
 31
-0.02364664524793625
 12
0.22183150053024292
 22
-1.5431320667266846
 32
-0.02364664524793625
 13
0.21367615461349487
 23
-1.5392580032348633
 33
0.07095809280872345
  0
3DFACE
  8
0
 10
0.22183102369308472
 20
1.1929396390914917
 30
-0.02364664524793625
 11
0.21367698907852173
 21
1.1895647048950195
 31
0.06819160282611847
 12
0.21367621421813965
 22
-1.1951912641525269
 32
0.07060925662517548
 13
0.22117745876312256
 23
-1.195192813873291
 33
-0.016205191612243652
  0
3DFACE
  8
0
 10
0.21367621421813965
 20
-1.1951912641525269
 30
0.07060925662517548
 11
0.21367698907852173
 21
1.1895647048950195
 31
0.06819160282611847
 12
0.09872931241989136
 22
1.1958004236221313
 32
0.06812520325183868
 13
0.09330546855926514
 23
-1.1951912641525269
 33
0.07054634392261505
  0
3DFACE
  8
0
 10
-1.9995214939117432
 20
-1.518723964691162
 30
0.06978060305118561
 11
-1.9895880222320557
 21
-1.5614290237426758
 31
0.06982909142971039
 12
0.21367615461349487
 22
-1.5392580032348633
 32
0.07095809280872345
 13
0.09330534934997559
 23
-1.3933771848678589
 33
0.0707472711801529
  0
3DFACE
  8
0
 10
-1.8413245677947998
 20
1.6349692344665527
 30
0.0077219754457473755
 11
0.1289035677909851
 21
1.6348344087600708
 31
-0.02364664524793625
 12
0.06742054224014282
 22
1.5124541521072388
 32
-0.12006139755249023
 13
-1.6363575458526611
 23
1.5124537944793701
 33
-0.10335379838943481
  0
ENDSEC
  0
EOF
